<svg width="32" height="30" viewBox="0 0 32 30" fill="none" xmlns="http://www.w3.org/2000/svg">
<path d="M11.25 26.0833H16V16.4915L9.66667 10.9688L3.33334 16.4915V26.0833H8.08334V19.75H11.25V26.0833ZM30.25 29.25H1.75001C1.33008 29.25 0.927352 29.0832 0.630419 28.7863C0.333487 28.4893 0.166672 28.0866 0.166672 27.6667V15.7711C0.166647 15.5448 0.215107 15.3212 0.308788 15.1153C0.402469 14.9094 0.539194 14.7259 0.709755 14.5773L6.5 9.528V2.33333C6.5 1.91341 6.66682 1.51068 6.96375 1.21375C7.26069 0.916815 7.66341 0.75 8.08334 0.75H30.25C30.6699 0.75 31.0727 0.916815 31.3696 1.21375C31.6665 1.51068 31.8333 1.91341 31.8333 2.33333V27.6667C31.8333 28.0866 31.6665 28.4893 31.3696 28.7863C31.0727 29.0832 30.6699 29.25 30.25 29.25ZM22.3333 13.4167V16.5833H25.5V13.4167H22.3333ZM22.3333 19.75V22.9167H25.5V19.75H22.3333ZM22.3333 7.08333V10.25H25.5V7.08333H22.3333ZM16 7.08333V10.25H19.1667V7.08333H16Z" fill="#4545FE"/>
</svg>
