<svg width="23" height="28" viewBox="0 0 23 28" fill="none" xmlns="http://www.w3.org/2000/svg">
<path fill-rule="evenodd" clip-rule="evenodd" d="M20.4338 9.72843C20.4338 11.4031 20.8764 12.39 21.8504 13.5275C22.5885 14.3655 22.8244 15.4411 22.8244 16.608C22.8244 17.7736 22.4414 18.8801 21.6741 19.7785C20.6697 20.8556 19.253 21.5431 17.8073 21.6627C15.7122 21.8412 13.616 21.9916 11.4917 21.9916C9.36611 21.9916 7.27111 21.9017 5.17605 21.6627C3.72899 21.5431 2.31241 20.8556 1.30927 19.7785C0.542008 18.8801 0.157715 17.7736 0.157715 16.608C0.157715 15.4411 0.394915 14.3655 1.1317 13.5275C2.13617 12.39 2.54961 11.4031 2.54961 9.72843V9.16039C2.54961 6.91778 3.10882 5.45135 4.26038 4.0158C5.97246 1.92226 8.71685 0.666656 11.4321 0.666656H11.5513C14.3249 0.666656 17.158 1.98268 18.841 4.1662C19.9329 5.5722 20.4338 6.97686 20.4338 9.16039V9.72843ZM7.58927 24.7477C7.58927 24.0764 8.20547 23.7688 8.77529 23.6372C9.44185 23.4963 13.5034 23.4963 14.17 23.6372C14.7398 23.7688 15.356 24.0764 15.356 24.7477C15.3228 25.3869 14.9478 25.9537 14.4297 26.3136C13.7578 26.8373 12.9694 27.1689 12.1452 27.2885C11.6893 27.3476 11.2414 27.3489 10.8014 27.2885C9.97585 27.1689 9.18745 26.8373 8.51689 26.3123C7.99742 25.9537 7.62241 25.3869 7.58927 24.7477Z" fill="white"/>
</svg>
