<svg width="27" height="28" viewBox="0 0 27 28" fill="none" xmlns="http://www.w3.org/2000/svg">
<path fill-rule="evenodd" clip-rule="evenodd" d="M24.694 16.1068C25.1709 16.3601 25.5389 16.7601 25.7977 17.1601C26.3019 17.9868 26.2611 19.0001 25.7705 19.8935L24.8167 21.4935C24.3125 22.3468 23.3723 22.8801 22.4049 22.8801C21.928 22.8801 21.3965 22.7468 20.9605 22.4801C20.6063 22.2535 20.1975 22.1735 19.7615 22.1735C18.4124 22.1735 17.2815 23.2801 17.2405 24.6001C17.2405 26.1335 15.9869 27.3335 14.42 27.3335H12.5668C10.9861 27.3335 9.73259 26.1335 9.73259 24.6001C9.70534 23.2801 8.57436 22.1735 7.22539 22.1735C6.77572 22.1735 6.36694 22.2535 6.02629 22.4801C5.59026 22.7468 5.04521 22.8801 4.58193 22.8801C3.60085 22.8801 2.66065 22.3468 2.15647 21.4935L1.21627 19.8935C0.712112 19.0268 0.684859 17.9868 1.18902 17.1601C1.40705 16.7601 1.81582 16.3601 2.27911 16.1068C2.66065 15.9201 2.90591 15.6135 3.13755 15.2535C3.81886 14.1068 3.41007 12.6001 2.25186 11.9201C0.902872 11.1601 0.466845 9.46681 1.24353 8.14681L2.15647 6.57348C2.94679 5.25348 4.63643 4.78681 5.99903 5.56014C7.18451 6.20014 8.72426 5.77348 9.41919 4.64014C9.63721 4.26681 9.75985 3.86681 9.73259 3.46681C9.70534 2.94681 9.85522 2.45348 10.1141 2.05348C10.6183 1.22681 11.5312 0.693476 12.526 0.666809H14.4472C15.4556 0.666809 16.3685 1.22681 16.8727 2.05348C17.118 2.45348 17.2815 2.94681 17.2405 3.46681C17.2133 3.86681 17.336 4.26681 17.554 4.64014C18.2489 5.77348 19.7887 6.20014 20.9877 5.56014C22.3368 4.78681 24.04 5.25348 24.8167 6.57348L25.7296 8.14681C26.52 9.46681 26.0839 11.1601 24.7213 11.9201C23.5631 12.6001 23.1543 14.1068 23.8492 15.2535C24.0672 15.6135 24.3125 15.9201 24.694 16.1068ZM9.6372 14.0135C9.6372 16.1068 11.3677 17.7735 13.5071 17.7735C15.6463 17.7735 17.336 16.1068 17.336 14.0135C17.336 11.9201 15.6463 10.2401 13.5071 10.2401C11.3677 10.2401 9.6372 11.9201 9.6372 14.0135Z" fill="white"/>
</svg>
