<svg width="32" height="32" viewBox="0 0 32 32" fill="none" xmlns="http://www.w3.org/2000/svg">
<g clip-path="url(#clip0_20_189)">
<path d="M12.9068 23.3662C12.5169 22.5942 12.1878 21.8708 11.7968 21.1821C10.649 19.1607 9.48634 17.1473 8.3089 15.1418C7.90066 14.4466 7.43285 13.7871 6.95639 13.0562L7.59853 12.3643C11.0349 8.6666 14.4712 4.96895 17.9075 1.27129C19.7051 -0.658388 22.3754 -0.353015 23.6933 1.92643C26.1298 6.13953 28.5622 10.3548 30.9908 14.5722C32.1982 16.6773 31.1153 19.1593 28.7601 19.7354C27.7627 19.979 26.7611 20.2064 25.7605 20.436C21.5228 21.4077 17.2823 22.3776 13.0389 23.3457C12.9954 23.3555 12.9512 23.3623 12.9068 23.3662Z" fill="white"/>
<path d="M3.27898 14.2452C3.69612 14.2579 4.10292 14.3781 4.45996 14.5942C4.817 14.8103 5.11219 15.1149 5.31694 15.4786C6.79831 18.0093 8.27211 20.5432 9.7145 23.0955C10.0231 23.6895 10.0898 24.3798 9.90057 25.0219C9.71138 25.6639 9.28099 26.2078 8.69963 26.5395C8.11826 26.8712 7.43106 26.965 6.78208 26.8012C6.13309 26.6374 5.57271 26.2287 5.2184 25.6609C3.7392 23.1453 2.27082 20.6233 0.844673 18.0807C-0.142908 16.3243 1.18145 14.1813 3.27898 14.2452Z" fill="white"/>
<path d="M16.5983 24.9776C17.3293 24.8097 18.0613 24.6397 18.7944 24.4729C19.7278 24.2564 20.6613 24.0398 21.599 23.846C21.6687 23.8391 21.7389 23.8492 21.8038 23.8754C21.8687 23.9016 21.9262 23.9432 21.9715 23.9965C22.7924 25.3934 23.6218 26.786 24.3961 28.2078C24.7114 28.7998 24.7824 29.4917 24.5938 30.1354C24.4051 30.779 23.9719 31.3232 23.3869 31.6513C22.1881 32.3335 20.645 31.9924 19.9314 30.8056C18.7966 28.9214 17.7213 27.0004 16.6211 25.0945C16.6093 25.0565 16.6017 25.0172 16.5983 24.9776Z" fill="white"/>
</g>
<defs>
<clipPath id="clip0_20_189">
<rect width="30.9821" height="32" fill="white" transform="translate(0.508972)"/>
</clipPath>
</defs>
</svg>
