<svg width="22" height="29" viewBox="0 0 22 29" fill="none" xmlns="http://www.w3.org/2000/svg">
<path d="M21.6667 28.3333H0.333344V25.6667C0.333344 23.8986 1.03572 22.2029 2.28596 20.9526C3.53621 19.7024 5.2319 19 7.00001 19H15C16.7681 19 18.4638 19.7024 19.7141 20.9526C20.9643 22.2029 21.6667 23.8986 21.6667 25.6667V28.3333ZM11 16.3333C9.94944 16.3333 8.90915 16.1264 7.93854 15.7244C6.96794 15.3223 6.08602 14.7331 5.34316 13.9902C4.60029 13.2473 4.01101 12.3654 3.60897 11.3948C3.20694 10.4242 3.00001 9.38391 3.00001 8.33333C3.00001 7.28276 3.20694 6.24247 3.60897 5.27187C4.01101 4.30126 4.60029 3.41935 5.34316 2.67648C6.08602 1.93361 6.96794 1.34434 7.93854 0.942298C8.90915 0.54026 9.94944 0.333334 11 0.333334C13.1217 0.333334 15.1566 1.17619 16.6569 2.67648C18.1572 4.17677 19 6.2116 19 8.33333C19 10.4551 18.1572 12.4899 16.6569 13.9902C15.1566 15.4905 13.1217 16.3333 11 16.3333Z" fill="#4545FE"/>
</svg>
